<mxfile host="app.diagrams.net" modified="2020-09-29T02:34:20.837Z" agent="5.0 (X11; Linux x86_64) AppleWebKit/537.36 (KHTML, like Gecko) Chrome/85.0.4183.102 Safari/537.36" etag="IgQBBPj2LJaSAyuNZCqL" version="13.7.6" type="github">
  <diagram id="Y1HJfDtqXogWoJ-ASMay" name="Page-1">
    <mxGraphModel dx="868" dy="1631" grid="1" gridSize="10" guides="1" tooltips="1" connect="1" arrows="1" fold="1" page="1" pageScale="1" pageWidth="827" pageHeight="1169" math="0" shadow="0">
      <root>
        <mxCell id="0" />
        <mxCell id="1" parent="0" />
        <mxCell id="b1qDz17YXrLya9IvxTbb-25" style="edgeStyle=orthogonalEdgeStyle;rounded=0;orthogonalLoop=1;jettySize=auto;html=1;exitX=0.5;exitY=1;exitDx=0;exitDy=0;endArrow=none;endFill=0;" edge="1" parent="1" source="b1qDz17YXrLya9IvxTbb-1" target="b1qDz17YXrLya9IvxTbb-7">
          <mxGeometry relative="1" as="geometry" />
        </mxCell>
        <mxCell id="b1qDz17YXrLya9IvxTbb-26" style="edgeStyle=orthogonalEdgeStyle;rounded=0;orthogonalLoop=1;jettySize=auto;html=1;exitX=0;exitY=0.75;exitDx=0;exitDy=0;entryX=0.5;entryY=0;entryDx=0;entryDy=0;endArrow=none;endFill=0;" edge="1" parent="1" source="b1qDz17YXrLya9IvxTbb-1" target="b1qDz17YXrLya9IvxTbb-4">
          <mxGeometry relative="1" as="geometry" />
        </mxCell>
        <mxCell id="b1qDz17YXrLya9IvxTbb-27" style="edgeStyle=orthogonalEdgeStyle;rounded=0;orthogonalLoop=1;jettySize=auto;html=1;exitX=0;exitY=1;exitDx=0;exitDy=0;entryX=0.5;entryY=0;entryDx=0;entryDy=0;endArrow=none;endFill=0;" edge="1" parent="1" source="b1qDz17YXrLya9IvxTbb-1" target="b1qDz17YXrLya9IvxTbb-3">
          <mxGeometry relative="1" as="geometry" />
        </mxCell>
        <mxCell id="b1qDz17YXrLya9IvxTbb-28" style="edgeStyle=orthogonalEdgeStyle;rounded=0;orthogonalLoop=1;jettySize=auto;html=1;exitX=1;exitY=1;exitDx=0;exitDy=0;entryX=0.5;entryY=0;entryDx=0;entryDy=0;endArrow=none;endFill=0;" edge="1" parent="1" source="b1qDz17YXrLya9IvxTbb-1" target="b1qDz17YXrLya9IvxTbb-8">
          <mxGeometry relative="1" as="geometry" />
        </mxCell>
        <mxCell id="b1qDz17YXrLya9IvxTbb-32" style="edgeStyle=orthogonalEdgeStyle;rounded=0;orthogonalLoop=1;jettySize=auto;html=1;exitX=1;exitY=0.75;exitDx=0;exitDy=0;endArrow=none;endFill=0;" edge="1" parent="1" source="b1qDz17YXrLya9IvxTbb-1" target="b1qDz17YXrLya9IvxTbb-18">
          <mxGeometry relative="1" as="geometry" />
        </mxCell>
        <mxCell id="b1qDz17YXrLya9IvxTbb-1" value="Louis Léon&lt;br&gt;&lt;br&gt;&lt;b&gt;PDG&lt;/b&gt;" style="rounded=0;whiteSpace=wrap;html=1;" vertex="1" parent="1">
          <mxGeometry x="339" y="90" width="150" height="90" as="geometry" />
        </mxCell>
        <mxCell id="b1qDz17YXrLya9IvxTbb-31" style="edgeStyle=orthogonalEdgeStyle;rounded=0;orthogonalLoop=1;jettySize=auto;html=1;endArrow=none;endFill=0;" edge="1" parent="1" source="b1qDz17YXrLya9IvxTbb-2">
          <mxGeometry relative="1" as="geometry">
            <mxPoint x="490" y="120" as="targetPoint" />
          </mxGeometry>
        </mxCell>
        <mxCell id="b1qDz17YXrLya9IvxTbb-2" value="Nicole Léger&lt;br&gt;&lt;br&gt;&lt;b&gt;Adjoint admin&lt;br&gt;Responsable RH&lt;/b&gt;" style="rounded=0;whiteSpace=wrap;html=1;" vertex="1" parent="1">
          <mxGeometry x="650" y="90" width="120" height="60" as="geometry" />
        </mxCell>
        <mxCell id="b1qDz17YXrLya9IvxTbb-11" value="DGA :département de la gestion des approvisionnements.&lt;br&gt;&lt;br&gt;DQP : département de qualité et de la production&lt;br&gt;DIEP : département des inventaires et&lt;br&gt;de l’expédition des produits&lt;br&gt;DV : Département des ventes&lt;br&gt;DSAV : déparement de service aprés vente&lt;br&gt;DGSW : département gesion site web&lt;br&gt;DCP :département de la conception et du développement des produits&amp;nbsp;&lt;br&gt;&amp;nbsp;DCF :département de comptabilité et des finances" style="text;html=1;strokeColor=none;fillColor=none;align=left;verticalAlign=middle;whiteSpace=wrap;rounded=0;" vertex="1" parent="1">
          <mxGeometry x="10" y="-50" width="270" height="180" as="geometry" />
        </mxCell>
        <mxCell id="b1qDz17YXrLya9IvxTbb-15" value="" style="group" vertex="1" connectable="0" parent="1">
          <mxGeometry x="30" y="290" width="120" height="100" as="geometry" />
        </mxCell>
        <mxCell id="b1qDz17YXrLya9IvxTbb-4" value="Jean Harvey&lt;br&gt;&lt;b&gt;&lt;br&gt;DGA &amp;amp; DQP&lt;/b&gt;" style="rounded=0;whiteSpace=wrap;html=1;" vertex="1" parent="b1qDz17YXrLya9IvxTbb-15">
          <mxGeometry width="120" height="60" as="geometry" />
        </mxCell>
        <mxCell id="b1qDz17YXrLya9IvxTbb-12" value="12 Employés" style="text;html=1;align=center;verticalAlign=middle;resizable=0;points=[];autosize=1;" vertex="1" parent="b1qDz17YXrLya9IvxTbb-15">
          <mxGeometry x="20" y="80" width="80" height="20" as="geometry" />
        </mxCell>
        <mxCell id="b1qDz17YXrLya9IvxTbb-16" value="" style="group" vertex="1" connectable="0" parent="1">
          <mxGeometry x="190" y="290" width="120" height="110" as="geometry" />
        </mxCell>
        <mxCell id="b1qDz17YXrLya9IvxTbb-3" value="Pierre Matrin&lt;br&gt;&lt;b&gt;&lt;br&gt;DIEP&lt;/b&gt;" style="rounded=0;whiteSpace=wrap;html=1;" vertex="1" parent="b1qDz17YXrLya9IvxTbb-16">
          <mxGeometry width="120" height="60" as="geometry" />
        </mxCell>
        <mxCell id="b1qDz17YXrLya9IvxTbb-13" value="3 Employés" style="text;html=1;align=center;verticalAlign=middle;resizable=0;points=[];autosize=1;" vertex="1" parent="b1qDz17YXrLya9IvxTbb-16">
          <mxGeometry x="20" y="90" width="80" height="20" as="geometry" />
        </mxCell>
        <mxCell id="b1qDz17YXrLya9IvxTbb-17" value="" style="group" vertex="1" connectable="0" parent="1">
          <mxGeometry x="354" y="290" width="120" height="110" as="geometry" />
        </mxCell>
        <mxCell id="b1qDz17YXrLya9IvxTbb-7" value="Mireille Duras&lt;br&gt;&lt;b&gt;&lt;br&gt;DV &amp;amp; DSAV &lt;br&gt;&amp;amp; DGSW&lt;/b&gt;" style="rounded=0;whiteSpace=wrap;html=1;" vertex="1" parent="b1qDz17YXrLya9IvxTbb-17">
          <mxGeometry width="120" height="60" as="geometry" />
        </mxCell>
        <mxCell id="b1qDz17YXrLya9IvxTbb-14" value="3 Employés" style="text;html=1;align=center;verticalAlign=middle;resizable=0;points=[];autosize=1;" vertex="1" parent="b1qDz17YXrLya9IvxTbb-17">
          <mxGeometry x="20" y="90" width="80" height="20" as="geometry" />
        </mxCell>
        <mxCell id="b1qDz17YXrLya9IvxTbb-20" value="" style="group" vertex="1" connectable="0" parent="1">
          <mxGeometry x="510" y="290" width="140" height="110" as="geometry" />
        </mxCell>
        <mxCell id="b1qDz17YXrLya9IvxTbb-5" value="Adil &lt;br&gt;Lazrak&lt;br&gt;" style="rounded=0;whiteSpace=wrap;html=1;" vertex="1" parent="b1qDz17YXrLya9IvxTbb-20">
          <mxGeometry x="40" y="80" width="100" height="30" as="geometry" />
        </mxCell>
        <mxCell id="b1qDz17YXrLya9IvxTbb-8" value="Electra Pianciamore&lt;br&gt;&lt;br&gt;&lt;b&gt;DCP&lt;/b&gt;" style="rounded=0;whiteSpace=wrap;html=1;" vertex="1" parent="b1qDz17YXrLya9IvxTbb-20">
          <mxGeometry width="120" height="60" as="geometry" />
        </mxCell>
        <mxCell id="b1qDz17YXrLya9IvxTbb-34" style="edgeStyle=orthogonalEdgeStyle;rounded=0;orthogonalLoop=1;jettySize=auto;html=1;exitX=0.25;exitY=1;exitDx=0;exitDy=0;endArrow=none;endFill=0;entryX=0;entryY=0.5;entryDx=0;entryDy=0;" edge="1" parent="b1qDz17YXrLya9IvxTbb-20" source="b1qDz17YXrLya9IvxTbb-8" target="b1qDz17YXrLya9IvxTbb-5">
          <mxGeometry relative="1" as="geometry">
            <mxPoint x="30" y="100" as="targetPoint" />
            <Array as="points">
              <mxPoint x="30" y="95" />
            </Array>
          </mxGeometry>
        </mxCell>
        <mxCell id="b1qDz17YXrLya9IvxTbb-21" value="" style="group" vertex="1" connectable="0" parent="1">
          <mxGeometry x="678" y="290" width="142" height="140" as="geometry" />
        </mxCell>
        <mxCell id="b1qDz17YXrLya9IvxTbb-18" value="Francine Bolduc&lt;br&gt;&lt;br&gt;&lt;b&gt;DCF&lt;/b&gt;" style="rounded=0;whiteSpace=wrap;html=1;" vertex="1" parent="b1qDz17YXrLya9IvxTbb-21">
          <mxGeometry width="120" height="60" as="geometry" />
        </mxCell>
        <mxCell id="b1qDz17YXrLya9IvxTbb-19" value="Pierre Cyr&lt;br&gt;&lt;br&gt;&lt;b&gt;commis comptable&lt;/b&gt;" style="rounded=0;whiteSpace=wrap;html=1;" vertex="1" parent="b1qDz17YXrLya9IvxTbb-21">
          <mxGeometry x="22" y="80" width="120" height="60" as="geometry" />
        </mxCell>
        <mxCell id="b1qDz17YXrLya9IvxTbb-36" style="edgeStyle=orthogonalEdgeStyle;rounded=0;orthogonalLoop=1;jettySize=auto;html=1;exitX=0;exitY=1;exitDx=0;exitDy=0;endArrow=none;endFill=0;entryX=0;entryY=0.5;entryDx=0;entryDy=0;" edge="1" parent="b1qDz17YXrLya9IvxTbb-21" source="b1qDz17YXrLya9IvxTbb-18" target="b1qDz17YXrLya9IvxTbb-19">
          <mxGeometry relative="1" as="geometry">
            <mxPoint y="110" as="targetPoint" />
          </mxGeometry>
        </mxCell>
      </root>
    </mxGraphModel>
  </diagram>
</mxfile>
